<svg width="23" height="22" viewBox="0 0 23 22" fill="none" xmlns="http://www.w3.org/2000/svg">
<path d="M13.9909 10.7708C13.67 10.7708 13.3989 10.6601 13.1773 10.4385C12.9558 10.217 12.845 9.94583 12.845 9.625C12.845 9.30417 12.9558 9.03299 13.1773 8.81146C13.3989 8.58993 13.67 8.47917 13.9909 8.47917C14.3117 8.47917 14.5829 8.58993 14.8044 8.81146C15.0259 9.03299 15.1367 9.30417 15.1367 9.625C15.1367 9.94583 15.0259 10.217 14.8044 10.4385C14.5829 10.6601 14.3117 10.7708 13.9909 10.7708ZM9.40755 10.7708C9.08672 10.7708 8.81554 10.6601 8.59401 10.4385C8.37248 10.217 8.26172 9.94583 8.26172 9.625C8.26172 9.30417 8.37248 9.03299 8.59401 8.81146C8.81554 8.58993 9.08672 8.47917 9.40755 8.47917C9.72839 8.47917 9.99957 8.58993 10.2211 8.81146C10.4426 9.03299 10.5534 9.30417 10.5534 9.625C10.5534 9.94583 10.4426 10.217 10.2211 10.4385C9.99957 10.6601 9.72839 10.7708 9.40755 10.7708ZM11.6992 15.5833C10.7825 15.5833 9.95373 15.3313 9.21276 14.8271C8.47179 14.3229 7.92561 13.6583 7.57422 12.8333H15.8242C15.4728 13.6583 14.9266 14.3229 14.1857 14.8271C13.4447 15.3313 12.6159 15.5833 11.6992 15.5833ZM11.6992 19.25C10.5534 19.25 9.48012 19.0323 8.47943 18.5969C7.47873 18.1615 6.6079 17.5733 5.86693 16.8323C5.12596 16.0913 4.53776 15.2205 4.10234 14.2198C3.66693 13.2191 3.44922 12.1458 3.44922 11C3.44922 9.85417 3.66693 8.7809 4.10234 7.78021C4.53776 6.77951 5.12596 5.90868 5.86693 5.16771C6.6079 4.42674 7.47873 3.83854 8.47943 3.40312C9.48012 2.96771 10.5534 2.75 11.6992 2.75C12.845 2.75 13.9183 2.96771 14.919 3.40312C15.9197 3.83854 16.7905 4.42674 17.5315 5.16771C18.2725 5.90868 18.8607 6.77951 19.2961 7.78021C19.7315 8.7809 19.9492 9.85417 19.9492 11C19.9492 12.1458 19.7315 13.2191 19.2961 14.2198C18.8607 15.2205 18.2725 16.0913 17.5315 16.8323C16.7905 17.5733 15.9197 18.1615 14.919 18.5969C13.9183 19.0323 12.845 19.25 11.6992 19.25ZM11.6992 17.4167C13.4714 17.4167 14.9839 16.7903 16.2367 15.5375C17.4895 14.2847 18.1159 12.7722 18.1159 11C18.1159 9.22778 17.4895 7.71528 16.2367 6.4625C14.9839 5.20972 13.4714 4.58333 11.6992 4.58333H11.4242C11.3325 4.58333 11.2409 4.59861 11.1492 4.62917C11.0575 4.72083 10.9964 4.82014 10.9659 4.92708C10.9353 5.03403 10.92 5.14861 10.92 5.27083C10.92 5.59167 11.0308 5.86285 11.2523 6.08438C11.4739 6.3059 11.745 6.41667 12.0659 6.41667C12.2034 6.41667 12.3294 6.39375 12.444 6.34792C12.5586 6.30208 12.677 6.27917 12.7992 6.27917C12.9825 6.27917 13.1353 6.34792 13.2575 6.48542C13.3798 6.62292 13.4409 6.78333 13.4409 6.96667C13.4409 7.31806 13.2766 7.5434 12.9482 7.64271C12.6197 7.74201 12.3256 7.79167 12.0659 7.79167C11.3784 7.79167 10.7864 7.5434 10.2898 7.04688C9.79332 6.55035 9.54505 5.95833 9.54505 5.27083V5.13333C9.54505 5.0875 9.55269 5.02639 9.56797 4.95C8.29991 5.40833 7.26866 6.17986 6.47422 7.26458C5.67978 8.34931 5.28255 9.59444 5.28255 11C5.28255 12.7722 5.90894 14.2847 7.16172 15.5375C8.4145 16.7903 9.927 17.4167 11.6992 17.4167Z" fill="#AEAEAE"/>
</svg>
