<svg width="23" height="22" viewBox="0 0 23 22" fill="none" xmlns="http://www.w3.org/2000/svg">
<path d="M3.82527 19.25C3.3211 19.25 2.88951 19.0705 2.53048 18.7115C2.17145 18.3524 1.99194 17.9208 1.99194 17.4167V15.5833C1.99194 15.3236 2.07979 15.1059 2.25548 14.9302C2.43117 14.7545 2.64888 14.6667 2.9086 14.6667H19.4086C19.6683 14.6667 19.886 14.7545 20.0617 14.9302C20.2374 15.1059 20.3252 15.3236 20.3252 15.5833V17.4167C20.3252 17.9208 20.1457 18.3524 19.7867 18.7115C19.4277 19.0705 18.9961 19.25 18.4919 19.25H3.82527ZM3.82527 16.5V17.4167H18.4919V16.5H3.82527ZM11.1586 12.375C10.6086 12.375 10.1732 12.5278 9.85235 12.8333C9.53152 13.1389 8.94333 13.2917 8.08777 13.2917C7.23222 13.2917 6.65166 13.1389 6.3461 12.8333C6.04055 12.5278 5.61277 12.375 5.06277 12.375C4.63499 12.375 4.28742 12.4781 4.02006 12.6844C3.7527 12.8906 3.38985 13.0549 2.93152 13.1771C2.68708 13.2535 2.46937 13.2038 2.2784 13.0281C2.08742 12.8524 1.99194 12.6347 1.99194 12.375C1.99194 12.1153 2.07979 11.8899 2.25548 11.699C2.43117 11.508 2.64124 11.3514 2.88569 11.2292C3.14541 11.0917 3.42805 10.9427 3.7336 10.7823C4.03916 10.6219 4.48222 10.5417 5.06277 10.5417C5.91833 10.5417 6.49888 10.6944 6.80444 11C7.10999 11.3056 7.53777 11.4583 8.08777 11.4583C8.63777 11.4583 9.07319 11.3056 9.39402 11C9.71485 10.6944 10.303 10.5417 11.1586 10.5417C12.0141 10.5417 12.6023 10.6944 12.9232 11C13.244 11.3056 13.6794 11.4583 14.2294 11.4583C14.7794 11.4583 15.2072 11.3056 15.5127 11C15.8183 10.6944 16.3989 10.5417 17.2544 10.5417C17.8044 10.5417 18.2398 10.6181 18.5607 10.7708C18.8815 10.9236 19.1718 11.0688 19.4315 11.2063C19.6759 11.3285 19.886 11.4889 20.0617 11.6875C20.2374 11.8861 20.3252 12.1153 20.3252 12.375C20.3252 12.6347 20.2336 12.8524 20.0502 13.0281C19.8669 13.2038 19.653 13.2535 19.4086 13.1771C18.9655 13.0549 18.6179 12.8906 18.3659 12.6844C18.1138 12.4781 17.7739 12.375 17.3461 12.375C16.7961 12.375 16.353 12.5278 16.0169 12.8333C15.6808 13.1389 15.085 13.2917 14.2294 13.2917C13.3739 13.2917 12.7857 13.1389 12.4648 12.8333C12.144 12.5278 11.7086 12.375 11.1586 12.375ZM11.1586 2.75C12.2891 2.75 13.4006 2.85313 14.4929 3.05938C15.5853 3.26562 16.5631 3.58646 17.4263 4.02188C18.2895 4.45729 18.9884 5.02257 19.5232 5.71771C20.0579 6.41285 20.3252 7.25694 20.3252 8.25C20.3252 8.50972 20.2374 8.72743 20.0617 8.90313C19.886 9.07882 19.6683 9.16667 19.4086 9.16667H2.9086C2.64888 9.16667 2.43117 9.07882 2.25548 8.90313C2.07979 8.72743 1.99194 8.50972 1.99194 8.25C1.99194 7.25694 2.2593 6.41285 2.79402 5.71771C3.32874 5.02257 4.0277 4.45729 4.8909 4.02188C5.75409 3.58646 6.73187 3.26562 7.82423 3.05938C8.91659 2.85313 10.0281 2.75 11.1586 2.75ZM11.1586 4.58333C9.26416 4.58333 7.67909 4.82014 6.4034 5.29375C5.1277 5.76736 4.31416 6.44722 3.96277 7.33333H18.3544C18.003 6.44722 17.1895 5.76736 15.9138 5.29375C14.6381 4.82014 13.053 4.58333 11.1586 4.58333Z" fill="#AEAEAE"/>
</svg>
