<svg width="23" height="22" viewBox="0 0 23 22" fill="none" xmlns="http://www.w3.org/2000/svg">
<path d="M7.1639 21.0832C6.65973 21.0832 6.22814 20.9037 5.86911 20.5447C5.51008 20.1856 5.33057 19.754 5.33057 19.2499V2.74984C5.33057 2.24567 5.51008 1.81408 5.86911 1.45505C6.22814 1.09602 6.65973 0.916504 7.1639 0.916504H16.3306C16.8348 0.916504 17.2664 1.09602 17.6254 1.45505C17.9844 1.81408 18.1639 2.24567 18.1639 2.74984V19.2499C18.1639 19.754 17.9844 20.1856 17.6254 20.5447C17.2664 20.9037 16.8348 21.0832 16.3306 21.0832H7.1639ZM7.1639 16.4999V19.2499H16.3306V16.4999H7.1639ZM11.7473 18.7915C12.007 18.7915 12.2247 18.7037 12.4004 18.528C12.5761 18.3523 12.6639 18.1346 12.6639 17.8749C12.6639 17.6151 12.5761 17.3974 12.4004 17.2217C12.2247 17.046 12.007 16.9582 11.7473 16.9582C11.4876 16.9582 11.2698 17.046 11.0941 17.2217C10.9185 17.3974 10.8306 17.6151 10.8306 17.8749C10.8306 18.1346 10.9185 18.3523 11.0941 18.528C11.2698 18.7037 11.4876 18.7915 11.7473 18.7915ZM7.1639 14.6665H16.3306V5.49984H7.1639V14.6665ZM7.1639 3.66651H16.3306V2.74984H7.1639V3.66651Z" fill="#AEAEAE"/>
</svg>
