<svg width="23" height="22" viewBox="0 0 23 22" fill="none" xmlns="http://www.w3.org/2000/svg">
<path d="M10.2457 18.3333H5.66228C5.40256 18.3333 5.18485 18.2454 5.00916 18.0697C4.83347 17.8941 4.74562 17.6763 4.74562 17.4166V11H3.18728C2.9734 11 2.82826 10.9007 2.75187 10.702C2.67548 10.5034 2.72131 10.3354 2.88937 10.1979L10.5436 3.29994C10.7116 3.13188 10.9179 3.04785 11.1623 3.04785C11.4068 3.04785 11.613 3.13188 11.7811 3.29994L14.829 6.04994V4.12494C14.829 4.00271 14.8748 3.89577 14.9665 3.8041C15.0582 3.71244 15.1651 3.6666 15.2873 3.6666H17.1207C17.2429 3.6666 17.3498 3.71244 17.4415 3.8041C17.5332 3.89577 17.579 4.00271 17.579 4.12494V8.52494L19.4353 10.1979C19.6033 10.3354 19.6491 10.5034 19.5728 10.702C19.4964 10.9007 19.3512 11 19.1373 11H17.579V17.4166C17.579 17.6763 17.4912 17.8941 17.3155 18.0697C17.1398 18.2454 16.9221 18.3333 16.6623 18.3333H12.079V12.8333H10.2457V18.3333ZM6.57895 16.5H8.41229V11H13.9123V16.5H15.7457V9.34994L11.1623 5.22494L6.57895 9.34994V16.5ZM9.32895 9.18952H12.9957C12.9957 8.70063 12.8123 8.29959 12.4457 7.9864C12.079 7.6732 11.6512 7.5166 11.1623 7.5166C10.6734 7.5166 10.2457 7.6732 9.87895 7.9864C9.51229 8.29959 9.32895 8.70063 9.32895 9.18952Z" fill="#AEAEAE"/>
</svg>
