<svg width="22" height="22" viewBox="0 0 22 22" fill="none" xmlns="http://www.w3.org/2000/svg">
<path d="M5.50035 10.0375L4.58368 10.5417C4.36979 10.6639 4.14062 10.6944 3.89618 10.6333C3.65174 10.5722 3.4684 10.4347 3.34618 10.2208L1.51285 7.0125C1.39062 6.79861 1.36007 6.56944 1.42118 6.325C1.48229 6.08056 1.61979 5.89722 1.83368 5.775L7.10451 2.75H8.70868C8.84618 2.75 8.95694 2.79201 9.04097 2.87604C9.125 2.96007 9.16701 3.07083 9.16701 3.20833V3.66667C9.16701 4.17083 9.34653 4.60243 9.70556 4.96146C10.0646 5.32049 10.4962 5.5 11.0003 5.5C11.5045 5.5 11.9361 5.32049 12.2951 4.96146C12.6542 4.60243 12.8337 4.17083 12.8337 3.66667V3.20833C12.8337 3.07083 12.8757 2.96007 12.9597 2.87604C13.0437 2.79201 13.1545 2.75 13.292 2.75H14.8962L20.167 5.775C20.3809 5.89722 20.5184 6.08056 20.5795 6.325C20.6406 6.56944 20.6101 6.79861 20.4878 7.0125L18.6545 10.2208C18.5323 10.4347 18.3528 10.5684 18.116 10.6219C17.8792 10.6753 17.6462 10.641 17.417 10.5188L16.5003 10.0604V18.3333C16.5003 18.5931 16.4125 18.8108 16.2368 18.9865C16.0611 19.1622 15.8434 19.25 15.5837 19.25H6.41701C6.15729 19.25 5.93958 19.1622 5.76389 18.9865C5.58819 18.8108 5.50035 18.5931 5.50035 18.3333V10.0375ZM7.33368 6.96667V17.4167H14.667V6.96667L17.5087 8.525L18.4712 6.92083L14.5295 4.62917C14.3003 5.40833 13.8687 6.05382 13.2347 6.56563C12.6007 7.07743 11.8559 7.33333 11.0003 7.33333C10.1448 7.33333 9.4 7.07743 8.76597 6.56563C8.13194 6.05382 7.70035 5.40833 7.47118 4.62917L3.52951 6.92083L4.49201 8.525L7.33368 6.96667Z" fill="#AEAEAE"/>
</svg>
