<svg width="21" height="20" viewBox="0 0 21 20" fill="none" xmlns="http://www.w3.org/2000/svg">
<path d="M9.71654 18.552C8.6471 18.3534 7.60821 18.0096 6.59987 17.5208C5.59154 17.0319 4.69396 16.352 3.90717 15.4812C3.12036 14.6103 2.48633 13.5333 2.00508 12.2499C1.52383 10.9666 1.2832 9.43879 1.2832 7.66657V7.48324C1.2832 7.26935 1.35195 7.09366 1.48946 6.95616C1.62696 6.81866 1.80265 6.74991 2.01654 6.74991H2.19987C2.97904 6.74991 3.78112 6.84921 4.60612 7.04782C5.43112 7.24643 6.20265 7.54435 6.92071 7.94157C7.08876 6.81102 7.42487 5.6499 7.92904 4.45824C8.43321 3.26657 9.03668 2.18949 9.73946 1.22699C9.92278 0.967264 10.1596 0.837402 10.4499 0.837402C10.7402 0.837402 10.977 0.967264 11.1603 1.22699C11.8631 2.18949 12.4665 3.26657 12.9707 4.45824C13.4749 5.6499 13.811 6.81102 13.979 7.94157C14.6971 7.54435 15.4686 7.24643 16.2936 7.04782C17.1186 6.84921 17.9207 6.74991 18.6999 6.74991H18.7915C19.0207 6.74991 19.2155 6.83011 19.3759 6.99053C19.5363 7.15095 19.6165 7.34574 19.6165 7.57491V7.66657C19.6165 9.43879 19.3759 10.9666 18.8947 12.2499C18.4134 13.5333 17.7794 14.6103 16.9926 15.4812C16.2058 16.352 15.3082 17.0319 14.2999 17.5208C13.2915 18.0096 12.2527 18.3534 11.1832 18.552C10.9846 18.5826 10.7402 18.5978 10.4499 18.5978C10.1596 18.5978 9.91515 18.5826 9.71654 18.552ZM10.404 16.7874C10.236 14.2666 9.47592 12.3531 8.12383 11.0468C6.77175 9.74053 5.11792 8.93463 3.16236 8.62907C3.13181 8.62907 3.13181 8.62907 3.16236 8.62907C3.33043 11.211 4.11342 13.1513 5.51133 14.4499C6.90925 15.7485 8.54015 16.5277 10.404 16.7874C10.4346 16.8027 10.4346 16.8065 10.404 16.7989C10.3735 16.7912 10.3735 16.7874 10.404 16.7874ZM8.66236 8.99574C8.96793 9.25546 9.28876 9.56484 9.62487 9.92386C9.96099 10.2829 10.236 10.6305 10.4499 10.9666C10.679 10.6305 10.9579 10.2829 11.2863 9.92386C11.6148 9.56484 11.9318 9.25546 12.2374 8.99574C12.2068 8.12491 12.0349 7.21588 11.7217 6.26865C11.4086 5.32143 10.9846 4.39713 10.4499 3.49574C9.91514 4.39713 9.49119 5.32143 9.178 6.26865C8.8648 7.21588 8.69292 8.12491 8.66236 8.99574ZM11.4582 12.8916C11.6415 13.3805 11.7981 13.9152 11.928 14.4958C12.0579 15.0763 12.161 15.7027 12.2374 16.3749C12.7874 16.1916 13.3679 15.9166 13.979 15.5499C14.5902 15.1833 15.1554 14.6944 15.6749 14.0833C16.1943 13.4721 16.645 12.7197 17.027 11.826C17.4089 10.9322 17.6457 9.86657 17.7374 8.62907C17.7374 8.59852 17.7374 8.59852 17.7374 8.62907C16.3013 8.84296 15.0408 9.32039 13.9561 10.0614C12.8714 10.8024 12.0388 11.7458 11.4582 12.8916Z" fill="#AEAEAE"/>
</svg>
