<svg width="22" height="22" viewBox="0 0 22 22" fill="none" xmlns="http://www.w3.org/2000/svg">
<path d="M15.5833 20.1666C15.3236 20.1666 15.1058 20.0788 14.9302 19.9031C14.7545 19.7274 14.6666 19.5097 14.6666 19.2499C14.6666 18.9902 14.7545 18.7725 14.9302 18.5968C15.1058 18.4211 15.3236 18.3333 15.5833 18.3333H18.3333V16.4999H15.5833C15.3236 16.4999 15.1058 16.4121 14.9302 16.2364C14.7545 16.0607 14.6666 15.843 14.6666 15.5833C14.6666 15.3236 14.7545 15.1058 14.9302 14.9301C15.1058 14.7545 15.3236 14.6666 15.5833 14.6666H18.3333V12.8333H15.5833C15.3236 12.8333 15.1058 12.7454 14.9302 12.5697C14.7545 12.394 14.6666 12.1763 14.6666 11.9166C14.6666 11.6569 14.7545 11.4392 14.9302 11.2635C15.1058 11.0878 15.3236 10.9999 15.5833 10.9999H18.3333V9.16659H15.5833C15.3236 9.16659 15.1058 9.07874 14.9302 8.90305C14.7545 8.72735 14.6666 8.50964 14.6666 8.24992C14.6666 7.9902 14.7545 7.77249 14.9302 7.5968C15.1058 7.4211 15.3236 7.33325 15.5833 7.33325H18.3333V5.49992H15.5833C15.3236 5.49992 15.1058 5.41207 14.9302 5.23638C14.7545 5.06068 14.6666 4.84298 14.6666 4.58325C14.6666 4.32353 14.7545 4.10582 14.9302 3.93013C15.1058 3.75443 15.3236 3.66659 15.5833 3.66659H19.2499C19.7541 3.66659 20.1857 3.8461 20.5447 4.20513C20.9038 4.56416 21.0833 4.99575 21.0833 5.49992V18.3333C21.0833 18.8374 20.9038 19.269 20.5447 19.6281C20.1857 19.9871 19.7541 20.1666 19.2499 20.1666H15.5833ZM5.86661 18.3333H8.79994L11.5041 10.8624L8.66244 9.16659H6.00411L3.16244 10.8624L5.86661 18.3333ZM4.14786 18.952L1.44369 11.5041C1.29092 11.0916 1.2871 10.6791 1.43223 10.2666C1.57737 9.85409 1.84092 9.53325 2.22286 9.30409L5.49994 7.33325V2.74992C5.49994 2.4902 5.58779 2.27249 5.76348 2.0968C5.93918 1.9211 6.15689 1.83325 6.41661 1.83325H8.24994C8.50967 1.83325 8.72737 1.9211 8.90307 2.0968C9.07876 2.27249 9.16661 2.4902 9.16661 2.74992V7.33325L12.4437 9.30409C12.8256 9.53325 13.0892 9.85409 13.2343 10.2666C13.3795 10.6791 13.3756 11.0916 13.2229 11.5041L10.5187 18.952C10.3965 19.3187 10.1788 19.6128 9.86557 19.8343C9.55237 20.0558 9.19717 20.1666 8.79994 20.1666H5.86661C5.46939 20.1666 5.11418 20.0558 4.80098 19.8343C4.48779 19.6128 4.27008 19.3187 4.14786 18.952Z" fill="white"/>
</svg>
