<svg width="23" height="22" viewBox="0 0 23 22" fill="none" xmlns="http://www.w3.org/2000/svg">
<path d="M18.8393 7.33341H16.0893V3.66675H3.25595C2.24761 3.66675 1.42261 4.49175 1.42261 5.50008V15.5834H3.25595C3.25595 17.1051 4.48428 18.3334 6.00595 18.3334C7.52761 18.3334 8.75595 17.1051 8.75595 15.5834H14.2559C14.2559 17.1051 15.4843 18.3334 17.0059 18.3334C18.5276 18.3334 19.7559 17.1051 19.7559 15.5834H21.5893V11.0001L18.8393 7.33341ZM18.3809 8.70841L20.1776 11.0001H16.0893V8.70841H18.3809ZM6.00595 16.5001C5.50178 16.5001 5.08928 16.0876 5.08928 15.5834C5.08928 15.0792 5.50178 14.6667 6.00595 14.6667C6.51011 14.6667 6.92261 15.0792 6.92261 15.5834C6.92261 16.0876 6.51011 16.5001 6.00595 16.5001ZM8.04095 13.7501C7.53678 13.1909 6.82178 12.8334 6.00595 12.8334C5.19011 12.8334 4.47511 13.1909 3.97095 13.7501H3.25595V5.50008H14.2559V13.7501H8.04095ZM17.0059 16.5001C16.5018 16.5001 16.0893 16.0876 16.0893 15.5834C16.0893 15.0792 16.5018 14.6667 17.0059 14.6667C17.5101 14.6667 17.9226 15.0792 17.9226 15.5834C17.9226 16.0876 17.5101 16.5001 17.0059 16.5001Z" fill="#AEAEAE"/>
</svg>
