<svg width="23" height="22" viewBox="0 0 23 22" fill="none" xmlns="http://www.w3.org/2000/svg">
<path d="M4.63028 11.1145C3.98862 11.1145 3.44626 10.893 3.0032 10.4499C2.56015 10.0069 2.33862 9.4645 2.33862 8.82284C2.33862 8.18117 2.56015 7.63881 3.0032 7.19575C3.44626 6.7527 3.98862 6.53117 4.63028 6.53117C5.27195 6.53117 5.81431 6.7527 6.25737 7.19575C6.70042 7.63881 6.92195 8.18117 6.92195 8.82284C6.92195 9.4645 6.70042 10.0069 6.25737 10.4499C5.81431 10.893 5.27195 11.1145 4.63028 11.1145ZM8.75528 7.44784C8.11362 7.44784 7.57126 7.22631 7.1282 6.78325C6.68515 6.3402 6.46362 5.79784 6.46362 5.15617C6.46362 4.5145 6.68515 3.97214 7.1282 3.52909C7.57126 3.08603 8.11362 2.8645 8.75528 2.8645C9.39695 2.8645 9.93931 3.08603 10.3824 3.52909C10.8254 3.97214 11.0469 4.5145 11.0469 5.15617C11.0469 5.79784 10.8254 6.3402 10.3824 6.78325C9.93931 7.22631 9.39695 7.44784 8.75528 7.44784ZM14.2553 7.44784C13.6136 7.44784 13.0712 7.22631 12.6282 6.78325C12.1851 6.3402 11.9636 5.79784 11.9636 5.15617C11.9636 4.5145 12.1851 3.97214 12.6282 3.52909C13.0712 3.08603 13.6136 2.8645 14.2553 2.8645C14.8969 2.8645 15.4393 3.08603 15.8824 3.52909C16.3254 3.97214 16.5469 4.5145 16.5469 5.15617C16.5469 5.79784 16.3254 6.3402 15.8824 6.78325C15.4393 7.22631 14.8969 7.44784 14.2553 7.44784ZM18.3803 11.1145C17.7386 11.1145 17.1962 10.893 16.7532 10.4499C16.3101 10.0069 16.0886 9.4645 16.0886 8.82284C16.0886 8.18117 16.3101 7.63881 16.7532 7.19575C17.1962 6.7527 17.7386 6.53117 18.3803 6.53117C19.0219 6.53117 19.5643 6.7527 20.0074 7.19575C20.4504 7.63881 20.6719 8.18117 20.6719 8.82284C20.6719 9.4645 20.4504 10.0069 20.0074 10.4499C19.5643 10.893 19.0219 11.1145 18.3803 11.1145ZM6.60112 20.2812C5.91362 20.2812 5.33688 20.0177 4.87091 19.4906C4.40494 18.9635 4.17195 18.3409 4.17195 17.6229C4.17195 16.8284 4.44313 16.1333 4.98549 15.5374C5.52785 14.9416 6.0664 14.3534 6.60112 13.7729C7.04417 13.2992 7.42612 12.7836 7.74695 12.226C8.06778 11.6683 8.44973 11.1451 8.89278 10.6562C9.2289 10.259 9.61848 9.93048 10.0615 9.67075C10.5046 9.41103 10.9858 9.28117 11.5053 9.28117C12.0247 9.28117 12.506 9.40339 12.949 9.64784C13.3921 9.89228 13.7817 10.2131 14.1178 10.6104C14.5456 11.0992 14.9237 11.6263 15.2521 12.1916C15.5806 12.7569 15.9664 13.284 16.4094 13.7729C16.9442 14.3534 17.4827 14.9416 18.0251 15.5374C18.5674 16.1333 18.8386 16.8284 18.8386 17.6229C18.8386 18.3409 18.6056 18.9635 18.1396 19.4906C17.6737 20.0177 17.0969 20.2812 16.4094 20.2812C15.5844 20.2812 14.7671 20.2124 13.9574 20.0749C13.1476 19.9374 12.3303 19.8687 11.5053 19.8687C10.6803 19.8687 9.86292 19.9374 9.0532 20.0749C8.24348 20.2124 7.42612 20.2812 6.60112 20.2812Z" fill="#AEAEAE"/>
</svg>
