<svg width="23" height="22" viewBox="0 0 23 22" fill="none" xmlns="http://www.w3.org/2000/svg">
<path d="M7.30076 8.68532L10.7153 3.11657C10.807 2.96379 10.9216 2.85303 11.0591 2.78428C11.1966 2.71553 11.3417 2.68115 11.4945 2.68115C11.6473 2.68115 11.7924 2.71553 11.9299 2.78428C12.0674 2.85303 12.182 2.96379 12.2737 3.11657L15.6882 8.68532C15.7799 8.8381 15.8257 8.99852 15.8257 9.16657C15.8257 9.33463 15.7876 9.4874 15.7112 9.62491C15.6348 9.76241 15.5278 9.87317 15.3903 9.9572C15.2528 10.0412 15.0924 10.0833 14.9091 10.0833H8.07993C7.89659 10.0833 7.73618 10.0412 7.59868 9.9572C7.46118 9.87317 7.35423 9.76241 7.27784 9.62491C7.20145 9.4874 7.16326 9.33463 7.16326 9.16657C7.16326 8.99852 7.20909 8.8381 7.30076 8.68532ZM16.5362 20.1666C15.3903 20.1666 14.4164 19.7656 13.6143 18.9635C12.8122 18.1614 12.4112 17.1874 12.4112 16.0416C12.4112 14.8958 12.8122 13.9218 13.6143 13.1197C14.4164 12.3176 15.3903 11.9166 16.5362 11.9166C17.682 11.9166 18.656 12.3176 19.458 13.1197C20.2601 13.9218 20.6612 14.8958 20.6612 16.0416C20.6612 17.1874 20.2601 18.1614 19.458 18.9635C18.656 19.7656 17.682 20.1666 16.5362 20.1666ZM3.24451 18.7916V13.2916C3.24451 13.0319 3.33236 12.8142 3.50805 12.6385C3.68375 12.4628 3.90145 12.3749 4.16118 12.3749H9.66118C9.9209 12.3749 10.1386 12.4628 10.3143 12.6385C10.49 12.8142 10.5778 13.0319 10.5778 13.2916V18.7916C10.5778 19.0513 10.49 19.269 10.3143 19.4447C10.1386 19.6204 9.9209 19.7083 9.66118 19.7083H4.16118C3.90145 19.7083 3.68375 19.6204 3.50805 19.4447C3.33236 19.269 3.24451 19.0513 3.24451 18.7916ZM16.5362 18.3333C17.1778 18.3333 17.7202 18.1117 18.1632 17.6687C18.6063 17.2256 18.8278 16.6833 18.8278 16.0416C18.8278 15.3999 18.6063 14.8576 18.1632 14.4145C17.7202 13.9715 17.1778 13.7499 16.5362 13.7499C15.8945 13.7499 15.3521 13.9715 14.9091 14.4145C14.466 14.8576 14.2445 15.3999 14.2445 16.0416C14.2445 16.6833 14.466 17.2256 14.9091 17.6687C15.3521 18.1117 15.8945 18.3333 16.5362 18.3333ZM5.07784 17.8749H8.74451V14.2083H5.07784V17.8749ZM9.70701 8.2499H13.282L11.4945 5.3624L9.70701 8.2499Z" fill="#AEAEAE"/>
</svg>
