<svg width="49" height="48" viewBox="0 0 49 48" fill="none" xmlns="http://www.w3.org/2000/svg">
<g filter="url(#filter0_d_18_556)">
<rect x="4.62598" y="4.37354" width="39.5961" height="39.5961" rx="19.798" fill="#1E60DB"/>
<path d="M20.2663 14.2727H28.5815C31.7492 14.2727 34.3229 16.8464 34.3229 20.0141V28.3293C34.3229 29.852 33.718 31.3124 32.6413 32.3891C31.5646 33.4658 30.1042 34.0707 28.5815 34.0707H20.2663C17.0986 34.0707 14.5249 31.497 14.5249 28.3293V20.0141C14.5249 18.4914 15.1298 17.0311 16.2065 15.9543C17.2833 14.8776 18.7436 14.2727 20.2663 14.2727ZM20.0684 16.2525C19.1232 16.2525 18.2168 16.628 17.5485 17.2963C16.8802 17.9646 16.5047 18.871 16.5047 19.8162V28.5273C16.5047 30.4972 18.0984 32.0909 20.0684 32.0909H28.7795C29.7246 32.0909 30.6311 31.7155 31.2994 31.0472C31.9677 30.3789 32.3431 29.4724 32.3431 28.5273V19.8162C32.3431 17.8463 30.7494 16.2525 28.7795 16.2525H20.0684ZM29.6209 17.7374C29.9491 17.7374 30.2638 17.8677 30.4959 18.0998C30.7279 18.3318 30.8583 18.6466 30.8583 18.9747C30.8583 19.3029 30.7279 19.6176 30.4959 19.8497C30.2638 20.0817 29.9491 20.2121 29.6209 20.2121C29.2927 20.2121 28.978 20.0817 28.7459 19.8497C28.5139 19.6176 28.3835 19.3029 28.3835 18.9747C28.3835 18.6466 28.5139 18.3318 28.7459 18.0998C28.978 17.8677 29.2927 17.7374 29.6209 17.7374ZM24.4239 19.2222C25.7366 19.2222 26.9955 19.7437 27.9237 20.6719C28.852 21.6001 29.3734 22.859 29.3734 24.1717C29.3734 25.4844 28.852 26.7433 27.9237 27.6716C26.9955 28.5998 25.7366 29.1212 24.4239 29.1212C23.1112 29.1212 21.8523 28.5998 20.9241 27.6716C19.9959 26.7433 19.4744 25.4844 19.4744 24.1717C19.4744 22.859 19.9959 21.6001 20.9241 20.6719C21.8523 19.7437 23.1112 19.2222 24.4239 19.2222ZM24.4239 21.202C23.6363 21.202 22.8809 21.5149 22.324 22.0718C21.7671 22.6288 21.4542 23.3841 21.4542 24.1717C21.4542 24.9593 21.7671 25.7147 22.324 26.2716C22.8809 26.8285 23.6363 27.1414 24.4239 27.1414C25.2115 27.1414 25.9669 26.8285 26.5238 26.2716C27.0807 25.7147 27.3936 24.9593 27.3936 24.1717C27.3936 23.3841 27.0807 22.6288 26.5238 22.0718C25.9669 21.5149 25.2115 21.202 24.4239 21.202Z" fill="white"/>
</g>
<defs>
<filter id="filter0_d_18_556" x="0.66637" y="0.413929" width="47.5152" height="47.5152" filterUnits="userSpaceOnUse" color-interpolation-filters="sRGB">
<feFlood flood-opacity="0" result="BackgroundImageFix"/>
<feColorMatrix in="SourceAlpha" type="matrix" values="0 0 0 0 0 0 0 0 0 0 0 0 0 0 0 0 0 0 127 0" result="hardAlpha"/>
<feMorphology radius="3.95961" operator="dilate" in="SourceAlpha" result="effect1_dropShadow_18_556"/>
<feOffset/>
<feComposite in2="hardAlpha" operator="out"/>
<feColorMatrix type="matrix" values="0 0 0 0 1 0 0 0 0 1 0 0 0 0 1 0 0 0 1 0"/>
<feBlend mode="normal" in2="BackgroundImageFix" result="effect1_dropShadow_18_556"/>
<feBlend mode="normal" in="SourceGraphic" in2="effect1_dropShadow_18_556" result="shape"/>
</filter>
</defs>
</svg>
