<svg width="48" height="49" viewBox="0 0 48 49" fill="none" xmlns="http://www.w3.org/2000/svg">
<g filter="url(#filter0_d_18_565)">
<rect x="4" y="4.96973" width="40" height="40" rx="20" fill="#1E60DB"/>
<path d="M34 24.9697C34 19.4297 29.54 14.9697 24 14.9697C22.83 14.9697 21.7 15.1597 20.62 15.5297L21.32 17.4697C22.17 17.1297 23.06 16.9397 24 16.9397C28.41 16.9397 32.03 20.5597 32.03 24.9697C32.03 29.3797 28.41 32.9997 24 32.9997C19.59 32.9997 15.97 29.3797 15.97 24.9697C15.97 24.0297 16.16 23.0897 16.5 22.2497L14.56 21.5897C14.19 22.6697 14 23.7997 14 24.9697C14 30.5097 18.46 34.9697 24 34.9697C29.54 34.9697 34 30.5097 34 24.9697ZM17.47 16.9397C18.32 16.9397 19 17.6497 19 18.4397C19 19.2897 18.32 19.9697 17.47 19.9697C16.68 19.9697 15.97 19.2897 15.97 18.4397C15.97 17.6497 16.68 16.9397 17.47 16.9397ZM30 24.9697C30 21.6397 27.33 18.9697 24 18.9697C20.67 18.9697 18 21.6397 18 24.9697C18 28.2997 20.67 30.9697 24 30.9697C27.33 30.9697 30 28.2997 30 24.9697ZM27 24.9697L22 27.9697V21.9697" fill="white"/>
</g>
<defs>
<filter id="filter0_d_18_565" x="0" y="0.969727" width="48" height="48" filterUnits="userSpaceOnUse" color-interpolation-filters="sRGB">
<feFlood flood-opacity="0" result="BackgroundImageFix"/>
<feColorMatrix in="SourceAlpha" type="matrix" values="0 0 0 0 0 0 0 0 0 0 0 0 0 0 0 0 0 0 127 0" result="hardAlpha"/>
<feMorphology radius="4" operator="dilate" in="SourceAlpha" result="effect1_dropShadow_18_565"/>
<feOffset/>
<feComposite in2="hardAlpha" operator="out"/>
<feColorMatrix type="matrix" values="0 0 0 0 1 0 0 0 0 1 0 0 0 0 1 0 0 0 1 0"/>
<feBlend mode="normal" in2="BackgroundImageFix" result="effect1_dropShadow_18_565"/>
<feBlend mode="normal" in="SourceGraphic" in2="effect1_dropShadow_18_565" result="shape"/>
</filter>
</defs>
</svg>
